REM DIRINDEX 1\2\6,1\2\7,1\2\8,1\3\9,1\3\10,1\3\11,1\4\12,1\4\13,1\4\14,1\5\15,1\5\16,1\5\17,1\5\18
REM DIRNAME folder01,folder02,folder03,folder04,folder05,folder06,folder07,folder08,folder09,folder10,folder11,folder12,folder13,folder14,folder15,folder16,folder17,folder18
TITLE ""
FILE "" MP3
  TRACK 01 AUDIO
    TITLE "16:cjc019_6441"
    INDEX 01 00:00:00
  TRACK 02 AUDIO
    TITLE "0:"
    INDEX 01 00:01:32
  TRACK 03 AUDIO
    TITLE "18:cjc019_6442"
    INDEX 01 00:02:08
  TRACK 04 AUDIO
    TITLE "0:"
    INDEX 01 00:03:17
  TRACK 05 AUDIO
    TITLE "17:cjc019_6443"
    INDEX 01 00:03:68
  TRACK 06 AUDIO
    TITLE "0:"
    INDEX 01 00:05:34
  TRACK 07 AUDIO
    TITLE "16:cjc019_6444"
    INDEX 01 00:07:11
  TRACK 08 AUDIO
    TITLE "0:"
    INDEX 01 00:08:32
  TRACK 09 AUDIO
    TITLE "18:cjc019_6445"
    INDEX 01 00:09:12
  TRACK 10 AUDIO
    TITLE "0:"
    INDEX 01 00:12:73
  TRACK 11 AUDIO
    TITLE "17:cjc019_6446"
    INDEX 01 00:13:49
  TRACK 12 AUDIO
    TITLE "0:"
    INDEX 01 00:14:68
  TRACK 13 AUDIO
    TITLE "16:cjc019_6447"
    INDEX 01 00:16:48
  TRACK 14 AUDIO
    TITLE "0:"
    INDEX 01 00:17:69
  TRACK 15 AUDIO
    TITLE "18:cjc019_6448"
    INDEX 01 00:18:48
  TRACK 16 AUDIO
    TITLE "0:"
    INDEX 01 00:19:46
  TRACK 17 AUDIO
    TITLE "17:cjc019_6449"
    INDEX 01 00:20:28
  TRACK 18 AUDIO
    TITLE "0:"
    INDEX 01 00:21:53
  TRACK 19 AUDIO
    TITLE "16:cjc019_6450"
    INDEX 01 00:23:30
  TRACK 20 AUDIO
    TITLE "0:"
    INDEX 01 00:24:37
  TRACK 21 AUDIO
    TITLE "18:cjc019_6451"
    INDEX 01 00:25:23
  TRACK 22 AUDIO
    TITLE "0:"
    INDEX 01 00:28:43
  TRACK 23 AUDIO
    TITLE "17:cjc019_6452"
    INDEX 01 00:29:21
  TRACK 24 AUDIO
    TITLE "0:"
    INDEX 01 00:30:32
  TRACK 25 AUDIO
    TITLE "16:cjc019_6453"
    INDEX 01 00:32:17
  TRACK 26 AUDIO
    TITLE "0:"
    INDEX 01 00:33:21
  TRACK 27 AUDIO
    TITLE "18:cjc019_6454"
    INDEX 01 00:34:04
  TRACK 28 AUDIO
    TITLE "0:"
    INDEX 01 00:36:46
  TRACK 29 AUDIO
    TITLE "17:cjc019_6455"
    INDEX 01 00:37:20
  TRACK 30 AUDIO
    TITLE "0:"
    INDEX 01 00:38:26
  TRACK 31 AUDIO
    TITLE "16:cjc019_6456"
    INDEX 01 00:40:11
  TRACK 32 AUDIO
    TITLE "0:"
    INDEX 01 00:41:20
  TRACK 33 AUDIO
    TITLE "18:cjc019_6457"
    INDEX 01 00:41:67
  TRACK 34 AUDIO
    TITLE "0:"
    INDEX 01 00:44:11
  TRACK 35 AUDIO
    TITLE "17:cjc019_6458"
    INDEX 01 00:44:63
  TRACK 36 AUDIO
    TITLE "0:"
    INDEX 01 00:45:73
  TRACK 37 AUDIO
    TITLE "16:cjc019_6459"
    INDEX 01 00:47:46
  TRACK 38 AUDIO
    TITLE "0:"
    INDEX 01 00:49:04
  TRACK 39 AUDIO
    TITLE "18:cjc019_6460"
    INDEX 01 00:49:59
  TRACK 40 AUDIO
    TITLE "0:"
    INDEX 01 00:52:55
  TRACK 41 AUDIO
    TITLE "17:cjc019_6461"
    INDEX 01 00:53:33
  TRACK 42 AUDIO
    TITLE "0:"
    INDEX 01 00:54:68
  TRACK 43 AUDIO
    TITLE "16:cjc019_6462"
    INDEX 01 00:56:45
  TRACK 44 AUDIO
    TITLE "0:"
    INDEX 01 00:57:56
  TRACK 45 AUDIO
    TITLE "18:cjc019_6463"
    INDEX 01 00:58:36
  TRACK 46 AUDIO
    TITLE "0:"
    INDEX 01 01:01:46
  TRACK 47 AUDIO
    TITLE "17:cjc019_6464"
    INDEX 01 01:02:26
  TRACK 48 AUDIO
    TITLE "0:"
    INDEX 01 01:03:37
  TRACK 49 AUDIO
    TITLE "16:cjc019_6465"
    INDEX 01 01:05:19
  TRACK 50 AUDIO
    TITLE "0:"
    INDEX 01 01:06:32
  TRACK 51 AUDIO
    TITLE "18:cjc019_6466"
    INDEX 01 01:07:14
  TRACK 52 AUDIO
    TITLE "0:"
    INDEX 01 01:11:31
  TRACK 53 AUDIO
    TITLE "17:cjc019_6467"
    INDEX 01 01:12:05
  TRACK 54 AUDIO
    TITLE "0:"
    INDEX 01 01:13:20
  TRACK 55 AUDIO
    TITLE "16:cjc019_6468"
    INDEX 01 01:15:05
  TRACK 56 AUDIO
    TITLE "0:"
    INDEX 01 01:15:70
  TRACK 57 AUDIO
    TITLE "18:cjc019_6469"
    INDEX 01 01:16:61
  TRACK 58 AUDIO
    TITLE "0:"
    INDEX 01 01:17:65
  TRACK 59 AUDIO
    TITLE "17:cjc019_6470"
    INDEX 01 01:18:43
  TRACK 60 AUDIO
    TITLE "0:"
    INDEX 01 01:19:38
  TRACK 61 AUDIO
    TITLE "16:cjc019_6471"
    INDEX 01 01:21:20
  TRACK 62 AUDIO
    TITLE "0:"
    INDEX 01 01:22:46
  TRACK 63 AUDIO
    TITLE "18:cjc019_6472"
    INDEX 01 01:23:26
  TRACK 64 AUDIO
    TITLE "0:"
    INDEX 01 01:24:20
  TRACK 65 AUDIO
    TITLE "17:cjc019_6473"
    INDEX 01 01:25:04
  TRACK 66 AUDIO
    TITLE "0:"
    INDEX 01 01:26:32
  TRACK 67 AUDIO
    TITLE "16:cjc019_6474"
    INDEX 01 01:28:10
  TRACK 68 AUDIO
    TITLE "0:"
    INDEX 01 01:29:52
  TRACK 69 AUDIO
    TITLE "18:cjc019_6475"
    INDEX 01 01:30:34
  TRACK 70 AUDIO
    TITLE "0:"
    INDEX 01 01:32:02
  TRACK 71 AUDIO
    TITLE "17:cjc019_6476"
    INDEX 01 01:32:57
  TRACK 72 AUDIO
    TITLE "0:"
    INDEX 01 01:34:26
  TRACK 73 AUDIO
    TITLE "16:cjc019_6477"
    INDEX 01 01:36:05
  TRACK 74 AUDIO
    TITLE "0:"
    INDEX 01 01:37:50
  TRACK 75 AUDIO
    TITLE "18:cjc019_6478"
    INDEX 01 01:38:26
  TRACK 76 AUDIO
    TITLE "0:"
    INDEX 01 01:39:53
  TRACK 77 AUDIO
    TITLE "17:cjc019_6479"
    INDEX 01 01:40:31
  TRACK 78 AUDIO
    TITLE "0:"
    INDEX 01 01:42:04
  TRACK 79 AUDIO
    TITLE "16:cjc019_6480"
    INDEX 01 01:43:62
  TRACK 80 AUDIO
    TITLE "0:"
    INDEX 01 01:45:22
  TRACK 81 AUDIO
    TITLE "18:cjc019_6481"
    INDEX 01 01:46:02
  TRACK 82 AUDIO
    TITLE "0:"
    INDEX 01 01:49:04
  TRACK 83 AUDIO
    TITLE "17:cjc019_6482"
    INDEX 01 01:49:59
  TRACK 84 AUDIO
    TITLE "0:"
    INDEX 01 01:51:19
  TRACK 85 AUDIO
    TITLE "16:cjc019_6483"
    INDEX 01 01:53:02
  TRACK 86 AUDIO
    TITLE "0:"
    INDEX 01 01:54:17
  TRACK 87 AUDIO
    TITLE "18:cjc019_6484"
    INDEX 01 01:55:01
  TRACK 88 AUDIO
    TITLE "0:"
    INDEX 01 01:56:04
  TRACK 89 AUDIO
    TITLE "17:cjc019_6485"
    INDEX 01 01:56:59
  TRACK 90 AUDIO
    TITLE "0:"
    INDEX 01 01:58:01
  TRACK 91 AUDIO
    TITLE "16:cjc019_6486"
    INDEX 01 01:59:61
  TRACK 92 AUDIO
    TITLE "0:"
    INDEX 01 02:01:01
  TRACK 93 AUDIO
    TITLE "18:cjc019_6487"
    INDEX 01 02:01:66
  TRACK 94 AUDIO
    TITLE "0:"
    INDEX 01 02:04:37
  TRACK 95 AUDIO
    TITLE "17:cjc019_6488"
    INDEX 01 02:05:15
  TRACK 96 AUDIO
    TITLE "0:"
    INDEX 01 02:06:28
  TRACK 97 AUDIO
    TITLE "16:cjc019_6489"
    INDEX 01 02:08:17
  TRACK 98 AUDIO
    TITLE "0:"
    INDEX 01 02:09:17
  TRACK 99 AUDIO
    TITLE "18:cjc019_6490"
    INDEX 01 02:09:73
  TRACK 100 AUDIO
    TITLE "0:"
    INDEX 01 02:13:73
  TRACK 101 AUDIO
    TITLE "17:cjc019_6491"
    INDEX 01 02:14:49
  TRACK 102 AUDIO
    TITLE "0:"
    INDEX 01 02:15:52
  TRACK 103 AUDIO
    TITLE "16:cjc019_6492"
    INDEX 01 02:17:36
  TRACK 104 AUDIO
    TITLE "0:"
    INDEX 01 02:18:55
  TRACK 105 AUDIO
    TITLE "18:cjc019_6493"
    INDEX 01 02:19:35
  TRACK 106 AUDIO
    TITLE "0:"
    INDEX 01 02:20:50
  TRACK 107 AUDIO
    TITLE "17:cjc019_6494"
    INDEX 01 02:21:28
  TRACK 108 AUDIO
    TITLE "0:"
    INDEX 01 02:22:49
